<svg width="57" height="57" viewBox="0 0 57 57" fill="none" xmlns="http://www.w3.org/2000/svg">
<circle cx="28.5" cy="28.5" r="28.5" fill="#6439C3"/>
<path d="M20.6667 22C21.1087 22 21.5326 22.1505 21.8452 22.4184C22.1577 22.6863 22.3333 23.0497 22.3333 23.4286V40.5714C22.3333 40.9503 22.1577 41.3137 21.8452 41.5816C21.5326 41.8495 21.1087 42 20.6667 42C20.2246 42 19.8007 41.8495 19.4882 41.5816C19.1756 41.3137 19 40.9503 19 40.5714V23.4286C19 23.0497 19.1756 22.6863 19.4882 22.4184C19.8007 22.1505 20.2246 22 20.6667 22ZM29 22C29.442 22 29.866 22.1505 30.1785 22.4184C30.4911 22.6863 30.6667 23.0497 30.6667 23.4286V40.5714C30.6667 40.9503 30.4911 41.3137 30.1785 41.5816C29.866 41.8495 29.442 42 29 42C28.558 42 28.134 41.8495 27.8215 41.5816C27.5089 41.3137 27.3333 40.9503 27.3333 40.5714V23.4286C27.3333 23.0497 27.5089 22.6863 27.8215 22.4184C28.134 22.1505 28.558 22 29 22ZM39 23.4286C39 23.0497 38.8244 22.6863 38.5118 22.4184C38.1993 22.1505 37.7754 22 37.3333 22C36.8913 22 36.4674 22.1505 36.1548 22.4184C35.8423 22.6863 35.6667 23.0497 35.6667 23.4286V40.5714C35.6667 40.9503 35.8423 41.3137 36.1548 41.5816C36.4674 41.8495 36.8913 42 37.3333 42C37.7754 42 38.1993 41.8495 38.5118 41.5816C38.8244 41.3137 39 40.9503 39 40.5714V23.4286Z" fill="white"/>
<path fill-rule="evenodd" clip-rule="evenodd" d="M47 17.4C47 18.0542 46.7001 18.6816 46.1664 19.1442C45.6326 19.6068 44.9087 19.8667 44.1538 19.8667H42.7308V42.0667C42.7308 43.3751 42.131 44.6299 41.0635 45.5551C39.996 46.4802 38.5482 47 37.0385 47H19.9615C18.4518 47 17.004 46.4802 15.9365 45.5551C14.869 44.6299 14.2692 43.3751 14.2692 42.0667V19.8667H12.8462C12.0913 19.8667 11.3674 19.6068 10.8336 19.1442C10.2999 18.6816 10 18.0542 10 17.4V14.9333C10 14.2791 10.2999 13.6517 10.8336 13.1891C11.3674 12.7265 12.0913 12.4667 12.8462 12.4667H22.8077C22.8077 11.8125 23.1076 11.1851 23.6413 10.7225C24.1751 10.2599 24.899 10 25.6538 10H31.3462C32.101 10 32.8249 10.2599 33.3587 10.7225C33.8924 11.1851 34.1923 11.8125 34.1923 12.4667H44.1538C44.9087 12.4667 45.6326 12.7265 46.1664 13.1891C46.7001 13.6517 47 14.2791 47 14.9333V17.4ZM17.4512 19.8667L17.1154 20.0122V42.0667C17.1154 42.7209 17.4152 43.3483 17.949 43.8109C18.4828 44.2735 19.2067 44.5333 19.9615 44.5333H37.0385C37.7933 44.5333 38.5172 44.2735 39.051 43.8109C39.5848 43.3483 39.8846 42.7209 39.8846 42.0667V20.0122L39.5488 19.8667H17.4512ZM12.8462 17.4V14.9333H44.1538V17.4H12.8462Z" fill="white"/>
</svg>
