<svg width="57" height="57" viewBox="0 0 57 57" fill="none" xmlns="http://www.w3.org/2000/svg">
<circle cx="28.5" cy="28.5" r="28.5" fill="#6439C3"/>
<path d="M38.5098 11.3019C38.3164 11.1086 38.0542 11 37.7808 11C37.5073 11 37.2451 11.1086 37.0517 11.3019L33.6549 14.6988L41.3003 22.3444L44.697 18.9496C44.7931 18.8538 44.8693 18.74 44.9213 18.6147C44.9732 18.4894 45 18.3551 45 18.2195C45 18.0838 44.9732 17.9495 44.9213 17.8242C44.8693 17.6989 44.7931 17.5851 44.697 17.4894L38.5098 11.3019ZM39.8421 23.8026L32.1968 16.157L18.7911 29.5631H19.218C19.4915 29.5631 19.7538 29.6717 19.9472 29.8651C20.1406 30.0585 20.2492 30.3208 20.2492 30.5943V31.6256H21.2804C21.5539 31.6256 21.8162 31.7342 22.0096 31.9276C22.203 32.121 22.3116 32.3833 22.3116 32.6568V33.688H23.3429C23.6163 33.688 23.8786 33.7967 24.072 33.9901C24.2654 34.1835 24.3741 34.4458 24.3741 34.7193V35.7505H25.4053C25.6788 35.7505 25.941 35.8591 26.1344 36.0525C26.3278 36.2459 26.4365 36.5082 26.4365 36.7817V37.2087L39.8421 23.8026ZM24.4401 39.2051C24.3967 39.0898 24.3743 38.9675 24.3741 38.8442V37.813H23.3429C23.0694 37.813 22.8071 37.7043 22.6137 37.5109C22.4203 37.3175 22.3116 37.0552 22.3116 36.7817V35.7505H21.2804C21.007 35.7505 20.7447 35.6419 20.5513 35.4485C20.3579 35.2551 20.2492 34.9928 20.2492 34.7193V33.688H19.218C18.9445 33.688 18.6823 33.5794 18.4889 33.386C18.2955 33.1926 18.1868 32.9303 18.1868 32.6568V31.6256H17.1556C17.0323 31.6254 16.9101 31.603 16.7947 31.5596L16.4255 31.9267C16.3273 32.0256 16.2501 32.1435 16.1987 32.2732L12.0738 42.5855C11.9988 42.7729 11.9805 42.9782 12.021 43.176C12.0616 43.3737 12.1593 43.5552 12.302 43.698C12.4448 43.8407 12.6262 43.9384 12.824 43.979C13.0217 44.0195 13.227 44.0012 13.4144 43.9261L23.7265 39.8012C23.8561 39.7498 23.974 39.6726 24.0729 39.5743L24.4401 39.2051Z" fill="white"/>
</svg>
