<svg width="57" height="57" viewBox="0 0 57 57" fill="none" xmlns="http://www.w3.org/2000/svg">
<circle cx="28.5" cy="28.5" r="28.5" fill="#6439C3"/>
<path d="M28.475 28.3484C29.3198 27.6171 29.9975 26.7126 30.4619 25.6963C30.9263 24.68 31.1667 23.5757 31.1667 22.4584C31.1667 20.3587 30.3326 18.3451 28.8479 16.8604C27.3633 15.3758 25.3496 14.5417 23.25 14.5417C21.1504 14.5417 19.1367 15.3758 17.6521 16.8604C16.1674 18.3451 15.3333 20.3587 15.3333 22.4584C15.3333 23.5757 15.5737 24.68 16.0381 25.6963C16.5025 26.7126 17.1802 27.6171 18.025 28.3484C15.8085 29.352 13.9281 30.9728 12.6084 33.0169C11.2887 35.061 10.5857 37.4419 10.5833 39.875C10.5833 40.2949 10.7501 40.6977 11.0471 40.9946C11.344 41.2915 11.7467 41.4584 12.1667 41.4584C12.5866 41.4584 12.9893 41.2915 13.2862 40.9946C13.5832 40.6977 13.75 40.2949 13.75 39.875C13.75 37.3555 14.7509 34.9391 16.5325 33.1575C18.3141 31.3759 20.7304 30.375 23.25 30.375C25.7696 30.375 28.1859 31.3759 29.9675 33.1575C31.7491 34.9391 32.75 37.3555 32.75 39.875C32.75 40.2949 32.9168 40.6977 33.2137 40.9946C33.5107 41.2915 33.9134 41.4584 34.3333 41.4584C34.7533 41.4584 35.156 41.2915 35.4529 40.9946C35.7499 40.6977 35.9167 40.2949 35.9167 39.875C35.9143 37.4419 35.2113 35.061 33.8916 33.0169C32.5719 30.9728 30.6914 29.352 28.475 28.3484ZM23.25 27.2084C22.3105 27.2084 21.3922 26.9298 20.611 26.4078C19.8299 25.8859 19.2211 25.144 18.8616 24.2761C18.5021 23.4082 18.408 22.4531 18.5913 21.5317C18.7745 20.6103 19.2269 19.7639 19.8912 19.0996C20.5555 18.4353 21.4019 17.9829 22.3233 17.7996C23.2447 17.6163 24.1998 17.7104 25.0677 18.0699C25.9357 18.4294 26.6775 19.0383 27.1995 19.8194C27.7214 20.6005 28 21.5189 28 22.4584C28 23.7181 27.4996 24.9263 26.6088 25.8171C25.718 26.7079 24.5098 27.2084 23.25 27.2084ZM38.6717 27.715C39.6849 26.574 40.3468 25.1644 40.5777 23.6559C40.8085 22.1474 40.5985 20.6044 39.9728 19.2125C39.3471 17.8207 38.3325 16.6393 37.0511 15.8106C35.7696 14.9819 34.276 14.5413 32.75 14.5417C32.3301 14.5417 31.9273 14.7085 31.6304 15.0054C31.3335 15.3024 31.1667 15.7051 31.1667 16.125C31.1667 16.5449 31.3335 16.9477 31.6304 17.2446C31.9273 17.5415 32.3301 17.7084 32.75 17.7084C34.0098 17.7084 35.218 18.2088 36.1088 19.0996C36.9996 19.9904 37.5 21.1986 37.5 22.4584C37.4978 23.29 37.2772 24.1065 36.8604 24.8261C36.4436 25.5458 35.8452 26.1434 35.125 26.5592C34.8902 26.6946 34.6942 26.888 34.5556 27.1209C34.417 27.3537 34.3404 27.6183 34.3333 27.8892C34.3267 28.158 34.3886 28.424 34.5133 28.6623C34.638 28.9005 34.8212 29.1031 35.0458 29.2509L35.6633 29.6625L35.8692 29.7734C37.7777 30.6786 39.3878 32.1103 40.5099 33.9C41.6319 35.6897 42.2192 37.7628 42.2025 39.875C42.2025 40.2949 42.3693 40.6977 42.6662 40.9946C42.9632 41.2915 43.3659 41.4584 43.7858 41.4584C44.2058 41.4584 44.6085 41.2915 44.9054 40.9946C45.2024 40.6977 45.3692 40.2949 45.3692 39.875C45.3821 37.4453 44.7736 35.0526 43.6013 32.9243C42.4291 30.796 40.7321 29.0028 38.6717 27.715Z" fill="white"/>
</svg>
