<svg width="36" height="45" viewBox="0 0 36 45" fill="none" xmlns="http://www.w3.org/2000/svg">
<path fill-rule="evenodd" clip-rule="evenodd" d="M17.0148 43.4572C17.904 43.4572 33.7918 26.4818 33.7918 17.2162C33.7918 7.95049 26.2804 0.439178 17.0148 0.439178C7.7491 0.439178 0.237793 7.95049 0.237793 17.2162C0.237793 26.4818 16.1256 43.4572 17.0148 43.4572ZM17.0148 25.6075C21.7125 25.6075 25.5208 21.7991 25.5208 17.1014C25.5208 12.4037 21.7125 8.5955 17.0148 8.5955C12.3171 8.5955 8.50888 12.4037 8.50888 17.1014C8.50888 21.7991 12.3171 25.6075 17.0148 25.6075Z" fill="#8B56FF"/>
<path fill-rule="evenodd" clip-rule="evenodd" d="M0.237793 17.2162C0.237793 26.4818 16.1256 43.4572 17.0148 43.4572V25.6075C12.3171 25.6073 8.50888 21.7991 8.50888 17.1014C8.50888 12.4038 12.3171 8.59552 17.0148 8.5955V0.439178C7.7491 0.439178 0.237793 7.95049 0.237793 17.2162Z" fill="#6439C3"/>
</svg>
