<svg width="57" height="57" viewBox="0 0 57 57" fill="none" xmlns="http://www.w3.org/2000/svg">
<circle cx="28.5" cy="28.5" r="28.5" fill="#6439C3"/>
<path d="M40.0625 10H16.9375C15.0976 10 13.333 10.7309 12.0319 12.0319C10.7309 13.333 10 15.0976 10 16.9375L10 40.0625C10 41.9024 10.7309 43.667 12.0319 44.9681C13.333 46.2691 15.0976 47 16.9375 47H40.0625C41.9024 47 43.667 46.2691 44.9681 44.9681C46.2691 43.667 47 41.9024 47 40.0625V16.9375C47 15.0976 46.2691 13.333 44.9681 12.0319C43.667 10.7309 41.9024 10 40.0625 10ZM33.125 12.3125V15.7812C33.125 16.0879 33.2468 16.382 33.4637 16.5988C33.6805 16.8157 33.9746 16.9375 34.2812 16.9375C34.5879 16.9375 34.882 16.8157 35.0988 16.5988C35.3157 16.382 35.4375 16.0879 35.4375 15.7812V12.3125H36.5938V20.4062H20.4062V12.3125H33.125ZM44.6875 40.0625C44.6875 41.2891 44.2002 42.4655 43.3329 43.3329C42.4655 44.2002 41.2891 44.6875 40.0625 44.6875H16.9375C15.7109 44.6875 14.5345 44.2002 13.6671 43.3329C12.7998 42.4655 12.3125 41.2891 12.3125 40.0625V16.9375C12.3125 15.7109 12.7998 14.5345 13.6671 13.6671C14.5345 12.7998 15.7109 12.3125 16.9375 12.3125H18.0938V21.5625C18.0938 21.8692 18.2156 22.1633 18.4324 22.3801C18.6492 22.5969 18.9433 22.7188 19.25 22.7188H37.75C38.0567 22.7188 38.3508 22.5969 38.5676 22.3801C38.7844 22.1633 38.9062 21.8692 38.9062 21.5625V12.3125H40.0625C41.2891 12.3125 42.4655 12.7998 43.3329 13.6671C44.2002 14.5345 44.6875 15.7109 44.6875 16.9375V40.0625ZM37.75 26.1875H19.25C18.9433 26.1875 18.6492 26.3093 18.4324 26.5262C18.2156 26.743 18.0938 27.0371 18.0938 27.3438V41.2188C18.0938 41.5254 18.2156 41.8195 18.4324 42.0363C18.6492 42.2532 18.9433 42.375 19.25 42.375H37.75C38.0567 42.375 38.3508 42.2532 38.5676 42.0363C38.7844 41.8195 38.9062 41.5254 38.9062 41.2188V27.3438C38.9062 27.0371 38.7844 26.743 38.5676 26.5262C38.3508 26.3093 38.0567 26.1875 37.75 26.1875ZM36.5938 40.0625H20.4062V28.5H36.5938V40.0625ZM23.875 33.125H33.125C33.4317 33.125 33.7258 33.0032 33.9426 32.7863C34.1594 32.5695 34.2812 32.2754 34.2812 31.9688C34.2812 31.6621 34.1594 31.368 33.9426 31.1512C33.7258 30.9343 33.4317 30.8125 33.125 30.8125H23.875C23.5683 30.8125 23.2742 30.9343 23.0574 31.1512C22.8406 31.368 22.7188 31.6621 22.7188 31.9688C22.7188 32.2754 22.8406 32.5695 23.0574 32.7863C23.2742 33.0032 23.5683 33.125 23.875 33.125ZM23.875 37.75H33.125C33.4317 37.75 33.7258 37.6282 33.9426 37.4113C34.1594 37.1945 34.2812 36.9004 34.2812 36.5938C34.2812 36.2871 34.1594 35.993 33.9426 35.7762C33.7258 35.5593 33.4317 35.4375 33.125 35.4375H23.875C23.5683 35.4375 23.2742 35.5593 23.0574 35.7762C22.8406 35.993 22.7188 36.2871 22.7188 36.5938C22.7188 36.9004 22.8406 37.1945 23.0574 37.4113C23.2742 37.6282 23.5683 37.75 23.875 37.75Z" fill="white"/>
</svg>
