<svg width="57" height="57" viewBox="0 0 57 57" fill="none" xmlns="http://www.w3.org/2000/svg">
<circle cx="28.5" cy="28.5" r="28.5" fill="#6439C3"/>
<path d="M32.8274 29.3867C34.1082 28.423 35.0431 27.1016 35.502 25.6063C35.9609 24.1109 35.9209 22.5159 35.3877 21.0433C34.8545 19.5706 33.8546 18.2935 32.5271 17.3896C31.1995 16.4857 29.6103 16 27.9806 16C26.3509 16 24.7618 16.4857 23.4342 17.3896C22.1066 18.2935 21.1067 19.5706 20.5735 21.0433C20.0403 22.5159 20.0004 24.1109 20.4593 25.6063C20.9181 27.1016 21.853 28.423 23.1338 29.3867C20.9391 30.2275 19.0242 31.622 17.5931 33.4217C16.1621 35.2214 15.2686 37.3587 15.0079 39.6058C14.989 39.7698 15.0041 39.9358 15.0523 40.0943C15.1006 40.2528 15.1809 40.4006 15.2889 40.5294C15.507 40.7894 15.8241 40.956 16.1706 40.9925C16.5171 41.0289 16.8645 40.9322 17.1365 40.7237C17.4084 40.5152 17.5826 40.2119 17.6207 39.8806C17.9076 37.4385 19.1253 35.1831 21.0412 33.5452C22.9571 31.9074 25.4369 31.002 28.0068 31.002C30.5766 31.002 33.0564 31.9074 34.9723 33.5452C36.8882 35.1831 38.1059 37.4385 38.3928 39.8806C38.4283 40.1876 38.5815 40.4711 38.8227 40.6764C39.064 40.8817 39.3762 40.9943 39.6992 40.9925H39.8429C40.1854 40.9548 40.4984 40.7892 40.7137 40.5318C40.9291 40.2744 41.0293 39.946 40.9926 39.6182C40.7306 37.3648 39.8323 35.222 38.3939 33.4196C36.9555 31.6171 35.0313 30.223 32.8274 29.3867ZM27.9806 28.4997C26.9471 28.4997 25.9368 28.2066 25.0774 27.6575C24.218 27.1084 23.5482 26.328 23.1527 25.4149C22.7572 24.5018 22.6537 23.497 22.8554 22.5277C23.057 21.5583 23.5547 20.6679 24.2855 19.969C25.0163 19.2702 25.9475 18.7943 26.9611 18.6014C27.9748 18.4086 29.0255 18.5076 29.9804 18.8858C30.9353 19.264 31.7514 19.9045 32.3256 20.7263C32.8998 21.5481 33.2063 22.5142 33.2063 23.5025C33.2063 24.8279 32.6557 26.0989 31.6757 27.036C30.6957 27.9732 29.3666 28.4997 27.9806 28.4997Z" fill="white"/>
</svg>
